<svg width="52" height="52" viewBox="0 0 52 52" fill="none" xmlns="http://www.w3.org/2000/svg">
<rect width="52" height="52" rx="26" fill="#2D2D2D"/>
<path fill-rule="evenodd" clip-rule="evenodd" d="M26.0893 10C29.5089 9.99998 32.1949 9.99997 34.2919 10.2819C36.4407 10.5708 38.1458 11.175 39.4854 12.5146C40.8251 13.8542 41.4292 15.5592 41.7181 17.7081C42 19.8052 42 22.4911 42 25.9107V26.0893C42 29.5089 42 32.1949 41.7181 34.2919C41.4292 36.4407 40.8251 38.1458 39.4854 39.4854C38.1458 40.8251 36.4407 41.4292 34.2919 41.7181C32.1949 42 29.5089 42 26.0893 42H25.9107C22.4911 42 19.8052 42 17.7081 41.7181C15.5592 41.4292 13.8542 40.8251 12.5146 39.4854C11.175 38.1458 10.5708 36.4407 10.2819 34.2919C9.99997 32.1949 9.99998 29.5089 10 26.0893V25.9107C9.99998 22.4911 9.99997 19.8052 10.2819 17.7081C10.5708 15.5592 11.175 13.8542 12.5146 12.5146C13.8542 11.175 15.5592 10.5708 17.7081 10.2819C19.8052 9.99997 22.4911 9.99998 25.9107 10H26.0893ZM33.0244 26C33.0244 29.8795 29.8795 33.0244 26 33.0244C22.1205 33.0244 18.9756 29.8795 18.9756 26C18.9756 22.1205 22.1205 18.9756 26 18.9756C29.8795 18.9756 33.0244 22.1205 33.0244 26ZM34.6046 18.9756C35.4628 18.9756 36.1585 18.2767 36.1585 17.4146C36.1585 16.5525 35.4628 15.8537 34.6046 15.8537H34.5905C33.7323 15.8537 33.0366 16.5525 33.0366 17.4146C33.0366 18.2767 33.7323 18.9756 34.5905 18.9756H34.6046Z" fill="#FAF9F6"/>
</svg>
