<svg width="14" height="14" viewBox="0 0 14 14" fill="none" xmlns="http://www.w3.org/2000/svg">
<path fill-rule="evenodd" clip-rule="evenodd" d="M7.00088 0.729004C4.76897 0.729004 2.63961 2.0491 1.74833 4.13257C0.918855 6.07152 1.36789 7.7216 2.30283 9.13455C3.06937 10.293 4.18737 11.3269 5.196 12.2596L5.19647 12.26C5.38865 12.4378 5.57685 12.6119 5.75788 12.7824L5.75885 12.7833C6.09426 13.0973 6.53987 13.2707 7.00088 13.2707C7.46194 13.2707 7.90755 13.0973 8.24297 12.7832C8.41418 12.6229 8.59168 12.4594 8.77275 12.2925C9.79236 11.3531 10.9261 10.3085 11.7006 9.13536C12.6345 7.72095 13.0819 6.06913 12.2534 4.13257C11.3622 2.0491 9.23283 0.729004 7.00088 0.729004ZM7 4.08317C5.71134 4.08317 4.66667 5.12784 4.66667 6.4165C4.66667 7.70515 5.71134 8.74984 7 8.74984C8.28864 8.74984 9.33333 7.70515 9.33333 6.4165C9.33333 5.12784 8.28864 4.08317 7 4.08317Z" fill="#7D7D7D"/>
</svg>
