<svg width="14" height="14" viewBox="0 0 14 14" fill="none" xmlns="http://www.w3.org/2000/svg">
<path fill-rule="evenodd" clip-rule="evenodd" d="M5.71668 1.37511C6.15267 1.15264 6.55505 1.02051 7.0006 1.02051C7.44621 1.02051 7.84859 1.15264 8.28458 1.37511C8.70627 1.5903 9.19178 1.90771 9.79961 2.30511L12.0884 3.80132C12.4951 4.06649 12.8192 4.27786 13.0108 4.61242C13.0359 4.65629 13.0485 4.67822 13.0534 4.71062C13.0589 4.7471 13.0488 4.79684 13.0295 4.82829C13.0124 4.85622 12.9875 4.87515 12.9377 4.91302L12.5734 5.19009L10.0894 6.98941C9.81472 7.18838 9.5654 7.36892 9.3351 7.53249C9.04723 7.73701 8.82002 7.85297 8.59065 7.92187C8.3593 7.99134 8.10059 8.02057 7.73805 8.02057H6.26362C5.90102 8.02057 5.64235 7.99134 5.41098 7.92187C5.18164 7.85297 4.95441 7.73701 4.66653 7.53249C4.43625 7.36892 4.18696 7.18838 3.91228 6.98941L1.42624 5.18862L1.06833 4.92284C1.01253 4.88141 0.984632 4.8607 0.966519 4.82935C0.949824 4.80047 0.940398 4.75535 0.944131 4.7222C0.948179 4.68623 0.962267 4.66162 0.990448 4.61242C1.18206 4.27786 1.50618 4.06649 1.91284 3.80132L4.20161 2.30511C4.80947 1.90771 5.295 1.59029 5.71668 1.37511ZM10.6009 7.69816C10.3274 7.8962 10.0751 8.07902 9.8412 8.24515C9.50135 8.48659 9.18822 8.65506 8.84172 8.75918C8.49726 8.86267 8.14458 8.89487 7.73735 8.89487H6.26298C5.85575 8.89487 5.50309 8.86267 5.1586 8.75918C4.81209 8.65506 4.49898 8.48659 4.15913 8.24515C3.92525 8.07902 3.67288 7.8962 3.39945 7.69816L1.30895 6.18412C1.06907 6.0104 0.94913 5.92354 0.854047 5.97137C0.758958 6.01921 0.757202 6.16726 0.753684 6.46342L0.729126 8.5311C0.747734 9.38644 0.762784 10.078 0.860849 10.6352C0.963982 11.2213 1.16455 11.6985 1.57651 12.1068C1.9898 12.5165 2.47847 12.7146 3.0792 12.8178C3.65348 12.9165 4.37016 12.9342 5.26146 12.9562L5.29514 12.957C6.43506 12.9852 7.56486 12.9852 8.70475 12.957L8.73847 12.9562C9.62974 12.9342 10.3464 12.9165 10.9207 12.8178C11.5214 12.7146 12.0102 12.5165 12.4234 12.1068C12.8354 11.6985 13.0359 11.2213 13.1391 10.6352C13.2371 10.078 13.2522 9.38644 13.2708 8.5311L13.2462 6.46347C13.2427 6.16732 13.241 6.01921 13.1458 5.97137C13.0508 5.92354 12.9308 6.01046 12.691 6.18418L10.6009 7.69816Z" fill="#7D7D7D"/>
</svg>
