<svg width="14" height="14" viewBox="0 0 14 14" fill="none" xmlns="http://www.w3.org/2000/svg">
<path d="M3.10169 0.750336C3.43226 0.818656 3.69551 1.04075 3.85908 1.33419L4.38012 2.26895C4.57204 2.61323 4.73355 2.90297 4.83902 3.15484C4.95091 3.42201 5.01736 3.68548 4.98699 3.97677C4.95661 4.26806 4.83723 4.51215 4.67263 4.7505C4.51745 4.97519 4.29964 5.22536 4.04081 5.52264L3.27489 6.40244C3.13764 6.56006 3.06901 6.63887 3.06274 6.73739C3.05647 6.83592 3.11272 6.92009 3.22521 7.08839C4.18397 8.52286 5.47613 9.81547 6.91176 10.7751C7.08011 10.8876 7.16422 10.9438 7.26275 10.9375C7.36127 10.9313 7.44014 10.8626 7.59776 10.7254L8.4776 9.95944C8.77487 9.70061 9.02506 9.48279 9.24976 9.32763C9.48805 9.16301 9.73217 9.0436 10.0234 9.01327C10.3147 8.98288 10.5782 9.04932 10.8454 9.1612C11.0972 9.26667 11.387 9.42819 11.7312 9.62005L12.666 10.1411C12.9595 10.3047 13.1816 10.568 13.2499 10.8985C13.3189 11.2326 13.2171 11.5683 12.9922 11.8442C12.1762 12.8454 10.8687 13.4829 9.49721 13.2063C8.65417 13.0362 7.82234 12.7528 6.81627 12.1759C4.79478 11.0166 2.98233 9.20309 1.82436 7.18399C1.24738 6.17792 0.964045 5.34609 0.79398 4.50302C0.517305 3.13147 1.15479 1.82406 2.156 1.00803C2.43194 0.783131 2.76768 0.681298 3.10169 0.750336Z" fill="#7D7D7D"/>
</svg>
