<svg width="52" height="52" viewBox="0 0 52 52" fill="none" xmlns="http://www.w3.org/2000/svg">
<rect width="52" height="52" rx="26" fill="#2D2D2D"/>
<path d="M32.1217 17.8073C30.7549 17.8072 29.5395 17.8071 28.5583 17.9391C27.4918 18.0825 26.4149 18.4133 25.5347 19.2937C24.6544 20.1742 24.3238 21.2514 24.1805 22.3183C24.0486 23.2998 24.0486 24.5157 24.0488 25.8828V27.1762H22.878C21.8004 27.1762 20.9268 28.05 20.9268 29.128C20.9268 30.2059 21.8004 31.0799 22.878 31.0799H24.0488V40.4417C24.0488 41.182 24.0488 41.5522 23.8167 41.7815C23.5845 42.0108 23.2172 42.0061 22.4827 41.9967C20.626 41.9733 19.047 41.9082 17.7081 41.7281C15.5592 41.4391 13.8542 40.8347 12.5146 39.4946C11.175 38.1547 10.5708 36.4492 10.2819 34.2996C9.99997 32.2018 9.99998 29.515 10 26.0943V25.9157C9.99998 22.4951 9.99997 19.8083 10.2819 17.7106C10.5708 15.561 11.175 13.8554 12.5146 12.5154C13.8542 11.1753 15.5592 10.571 17.7081 10.282C19.8052 9.99997 22.4911 9.99998 25.9107 10H26.0893C29.5089 9.99998 32.1949 9.99997 34.2919 10.282C36.4407 10.571 38.1458 11.1753 39.4854 12.5154C40.8251 13.8554 41.4292 15.561 41.7181 17.7106C42 19.8083 42 22.4951 42 25.9157V26.0943C42 29.515 42 32.2018 41.7181 34.2996C41.4292 36.4492 40.8251 38.1547 39.4854 39.4946C38.1458 40.8347 36.4407 41.4391 34.2919 41.7281C32.9531 41.9082 31.374 41.9733 29.5173 41.9967C28.7827 42.0061 28.4155 42.0108 28.1833 41.7815C27.9512 41.5522 27.9512 41.182 27.9512 40.4417V31.0799H30.6829C31.7606 31.0799 32.6341 30.2059 32.6341 29.128C32.6341 28.05 31.7606 27.1762 30.6829 27.1762H27.9512V26.005C27.9512 24.4777 27.9554 23.5285 28.0482 22.8384C28.1318 22.2155 28.2555 22.0925 28.2923 22.0559L28.2942 22.054L28.296 22.0521C28.3326 22.0154 28.4556 21.8917 29.0782 21.808C29.7682 21.7152 30.7171 21.711 32.2439 21.711H33.8049C34.8826 21.711 35.7561 20.8372 35.7561 19.7592C35.7561 18.6812 34.8826 17.8073 33.8049 17.8073H32.1217Z" fill="#FAF9F6"/>
</svg>
