<svg width="52" height="52" viewBox="0 0 52 52" fill="none" xmlns="http://www.w3.org/2000/svg">
<rect width="52" height="52" rx="26" fill="#2D2D2D"/>
<path fill-rule="evenodd" clip-rule="evenodd" d="M34.2919 10.2819C32.1949 9.99997 29.5089 9.99998 26.0893 10H25.9107C22.4911 9.99998 19.8052 9.99997 17.7081 10.2819C15.5592 10.5708 13.8542 11.175 12.5146 12.5146C11.175 13.8542 10.5708 15.5592 10.2819 17.7081C9.99997 19.8052 9.99998 22.4911 10 25.9107V26.0893C9.99998 29.5089 9.99997 32.1949 10.2819 34.2919C10.5708 36.4407 11.175 38.1458 12.5146 39.4854C13.8542 40.8251 15.5592 41.4292 17.7081 41.7181C19.8052 42 22.4911 42 25.9107 42H26.0893C29.5089 42 32.1949 42 34.2919 41.7181C36.4409 41.4292 38.1458 40.8251 39.4854 39.4854C40.825 38.1458 41.4291 36.4407 41.7181 34.2919C42 32.1949 42 29.5089 42 26.0893V25.9107C42 22.4911 42 19.8052 41.7181 17.7081C41.4291 15.5592 40.825 13.8542 39.4854 12.5146C38.1458 11.175 36.4409 10.5708 34.2919 10.2819ZM18.1951 17.0244C17.7555 17.0244 17.3529 17.2707 17.1527 17.6621C16.9526 18.0536 16.9886 18.5242 17.246 18.8806L23.2083 27.1361L17.3673 32.9771C16.9101 33.4343 16.9101 34.1755 17.3673 34.6327C17.8245 35.0899 18.5658 35.0899 19.023 34.6327L24.597 29.0587L28.5197 34.4903C28.7398 34.7952 29.0929 34.9756 29.4688 34.9756H33.8048C34.2446 34.9756 34.6471 34.7293 34.8473 34.3378C35.0474 33.9465 35.0113 33.4758 34.7539 33.1195L28.7918 24.8639L34.6328 19.023C35.0898 18.5658 35.0898 17.8245 34.6328 17.3673C34.1756 16.9101 33.4343 16.9101 32.9771 17.3673L27.4031 22.9413L23.4802 17.5097C23.2601 17.2049 22.9071 17.0244 22.5312 17.0244H18.1951Z" fill="#FAF9F6"/>
</svg>
